<svg xmlns="http://www.w3.org/2000/svg" viewBox="0 0 89.48 89.48">
  <title>icon-one</title>
  <g>
    <path d="M56.58,10.86A36.63,36.63,0,0,0,52,9.57L51.05,14a33,33,0,0,1,4,1.13Z" style="fill: #1c9ad6"/>
    <path d="M46.9,13.39l.33-4.49a38.27,38.27,0,0,0-4.79,0l.26,4.49A32.7,32.7,0,0,1,46.9,13.39Z" style="fill: #1c9ad6"/>
    <path d="M42.29,76.14,42,80.62c.86.06,1.74.09,2.63.09.72,0,1.44,0,2.15-.06l-.26-4.49A32.7,32.7,0,0,1,42.29,76.14Z" style="fill: #1c9ad6"/>
    <path d="M32.61,78.66A35,35,0,0,0,37.22,80l.93-4.4a29.49,29.49,0,0,1-4-1.13Z" style="fill: #1c9ad6"/>
    <path d="M70.57,20h5.49V15.55H62.57V29h4.5V22.86A31.37,31.37,0,0,1,50.64,75.64l.86,4.41A35.84,35.84,0,0,0,70.57,20Z" style="fill: #1c9ad6"/>
    <path d="M46.84,60.49V55.58A6.72,6.72,0,0,0,44.6,42.51a2.25,2.25,0,1,1,0-4.49h6.74V33.53h-4.5V29H42.35v4.91A6.73,6.73,0,0,0,44.6,47a2.25,2.25,0,0,1,0,4.49H37.86V56h4.49v4.49Z" style="fill: #1c9ad6"/>
    <path d="M22.13,66.66A31.36,31.36,0,0,1,38.55,13.89l-.87-4.41a35.84,35.84,0,0,0-19.06,60H13.14V74H26.62V60.49H22.13Z" style="fill: #1c9ad6"/>
    <path d="M67.07,44.76A22.47,22.47,0,1,0,44.6,67.23,22.5,22.5,0,0,0,67.07,44.76Zm-40.45,0a18,18,0,1,1,18,18A18,18,0,0,1,26.62,44.76Z" style="fill: #1c9ad6"/>
  </g>
</svg>
