<svg id="Capa_1" data-name="Capa 1" xmlns="http://www.w3.org/2000/svg" viewBox="0 0 286.95 286.95"><defs><style>.cls-1{fill:#1b3380;}</style></defs><title>integraciones</title><g id="ev2MXx"><path class="cls-1" d="M31.33,64.92c.36-1.46.69-2.94,1.08-4.4,3.9-14.58,16.77-24.37,32.23-24.38q48.61-.06,97.23,0c13.86,0,27.73,0,41.6,0,17,0,30.47,11.19,33,27.92,1.93,12.83-2.76,23.32-13.05,31.26-.35.27-.72.5-1.08.76l-1.16.83c1,.7,1.84,1.29,2.66,1.94a4.63,4.63,0,0,1,1.15,6.57,4.51,4.51,0,0,1-6.58,1c-4.79-3.54-10.11-4.74-16-4.73q-69,.14-137.95.06c-13,0-22.73,9.08-23.71,22-1,12.65,9.76,24.37,22.44,24.41,18.69.05,37.37,0,56.06,0,3.49,0,5.72,2,5.57,5-.12,2.65-2.19,4.52-5.16,4.55-4.53,0-9,0-13.58,0q-21.24,0-42.48,0a23.19,23.19,0,0,0-22.91,22.91C40.35,193,50.42,204,62.71,204.21c18.53.26,37.07.1,55.61.13a12.72,12.72,0,0,1,3,.28,4.59,4.59,0,0,1,0,8.85,12,12,0,0,1-2.81.27q-26.72,0-53.43,0c-17.32,0-30.34-11-33.41-28a3.26,3.26,0,0,0-.35-.76v-7.89a2.89,2.89,0,0,0,.35-.76A32.4,32.4,0,0,1,46,153.72a8.43,8.43,0,0,0,.73-.59c0-.23,0-.33-.05-.36l-1.57-1.18a32.68,32.68,0,0,1-12.71-18.31c-.4-1.46-.72-2.93-1.08-4.4V121a4.52,4.52,0,0,0,.38-1A32.31,32.31,0,0,1,45.47,98c.46-.33.9-.67,1.51-1.12-.73-.55-1.29-1-1.86-1.38A32.74,32.74,0,0,1,32.41,77.21c-.4-1.46-.72-2.93-1.08-4.4ZM134,92.11q35.25,0,70.49,0a23.22,23.22,0,0,0,23-22.55c.34-13.14-10.35-24.13-24.29-24.08-46.12.18-92.24.05-138.36.12a27.83,27.83,0,0,0-8.37,1.25C45.62,50.38,39.18,61.35,41,72.87A23.2,23.2,0,0,0,64,92.1Q99,92.13,134,92.11Z"/><path class="cls-1" d="M143.46,163.68q0-10.29,0-20.59c0-3.12,1-4.48,4-5.48,16.5-5.57,33-11.18,49.53-16.63a8.83,8.83,0,0,1,5.24,0c16.34,5.38,32.62,10.91,48.91,16.41,3.65,1.24,4.48,2.42,4.48,6.25,0,12.19-.07,24.38,0,36.57.14,18.12-7.13,33.11-19.32,46a108.3,108.3,0,0,1-34.14,24,6.42,6.42,0,0,1-4.75.21c-17.36-8.07-32.45-19-43.31-35.11a59.85,59.85,0,0,1-10.64-34.6C143.5,175.07,143.46,169.37,143.46,163.68Zm9.31,3.09q0,6.9,0,13.8a49.49,49.49,0,0,0,5.38,23c8.93,17.29,23.59,28.4,40.4,37.14a2.77,2.77,0,0,0,2.2-.1c12.53-6.43,23.78-14.53,32.7-25.55,7-8.63,12-18.29,12.47-29.54.51-12.83.3-25.69.29-38.54a2.67,2.67,0,0,0-1.56-1.83q-21.81-7.49-43.69-14.78a4.67,4.67,0,0,0-2.72,0c-14.58,4.88-29.14,9.83-43.72,14.71a2.15,2.15,0,0,0-1.79,2.45C152.82,153.92,152.77,160.34,152.77,166.77Z"/><path class="cls-1" d="M106.14,181.07A14,14,0,0,1,120.08,167a14,14,0,1,1-13.94,14.08ZM124.7,181a4.63,4.63,0,0,0-4.5-4.66,4.67,4.67,0,1,0,0,9.33A4.63,4.63,0,0,0,124.7,181Z"/><path class="cls-1" d="M106.14,125a14,14,0,1,1,28,0,14,14,0,0,1-28,0Zm18.56-.13a4.65,4.65,0,0,0-4.58-4.6,4.68,4.68,0,0,0-.06,9.35A4.66,4.66,0,0,0,124.7,124.86Z"/><path class="cls-1" d="M87.39,124.91a14,14,0,1,1-14.1-14A14.06,14.06,0,0,1,87.39,124.91ZM78,125a4.67,4.67,0,1,0-4.88,4.56A4.77,4.77,0,0,0,78,125Z"/><path class="cls-1" d="M59.37,180.84A14,14,0,1,1,73.27,195,14.05,14.05,0,0,1,59.37,180.84Zm14,4.83a4.67,4.67,0,1,0-4.67-4.77A4.77,4.77,0,0,0,73.38,185.67Z"/><path class="cls-1" d="M106.14,68.86a13.94,13.94,0,0,1,14-14,14,14,0,1,1-14,14Zm18.56-.08a4.65,4.65,0,0,0-4.58-4.59,4.68,4.68,0,0,0-.05,9.35A4.66,4.66,0,0,0,124.7,68.78Z"/><path class="cls-1" d="M73.37,54.85a14,14,0,1,1-14,14.08A14.05,14.05,0,0,1,73.37,54.85ZM78,68.77a4.67,4.67,0,1,0-4.67,4.76A4.76,4.76,0,0,0,78,68.77Z"/><path class="cls-1" d="M195.28,192.7c3.47-3.48,6.75-6.79,10.05-10.09,6.08-6.09,12.12-12.22,18.3-18.21a6.43,6.43,0,0,1,4.13-1.92,6.25,6.25,0,0,1,3.82,2.38c1.14,1.38.82,3.2-.18,4.71a12.35,12.35,0,0,1-1.61,1.79l-30.47,30.48c-3.6,3.6-6,3.44-9.18-.58L173.6,180.59c-.36-.46-.75-.9-1.08-1.38a4.65,4.65,0,1,1,7.34-5.72c3.75,4.57,7.4,9.22,11.09,13.83C192.31,189,193.68,190.71,195.28,192.7Z"/></g></svg>